<svg fill="none" xmlns="http://www.w3.org/2000/svg" viewBox="0 0 96 96" width="100%" height="100%" focusable="false" aria-hidden="true"><g clip-path="url(#a)"><path d="M8.5 41.95V90.95H87.53V42.17L46.77 19.95L8.99 41.95L38.82 60.95" fill="#fff"></path><path d="M8.5 41.95V90.95H87.53V42.17L46.77 19.95L8.99 41.95L38.82 60.95" stroke="#131313" stroke-linecap="round" stroke-linejoin="round"></path><path d="M84.61 41.15L51.75 60.8" stroke="#131313" stroke-miterlimit="10"></path><path d="M21.53 50.86V4.5H73.53V50.88L45 68.05L21.53 50.86Z" fill="#fff"></path><path d="M73.03 5V50.6L45.03 67.45L22.03 50.6V5H73.03ZM74.03 4H21.03V51.11L21.44 51.41L44.44 68.26L44.98 68.65L45.55 68.31L73.55 51.46L74.03 51.17V4Z" fill="#131313"></path><path d="M51.71 48.6C44.85 48.6 38.67 44.57 35.87 38.31H31.13C30.85 38.31 30.63 38.09 30.63 37.81V34.07C30.63 33.79 30.85 33.57 31.13 33.57H34.54C34.43 32.76 34.37 32 34.37 31.26C34.37 30.82 34.39 30.37 34.43 29.89H31.13C30.85 29.89 30.63 29.67 30.63 29.39V25.65C30.63 25.37 30.85 25.15 31.13 25.15H35.5C38.04 18.42 44.51 13.93 51.7 13.93C55.56 13.93 59.22 15.19 62.29 17.57C62.41 17.66 62.48 17.81 62.48 17.97V23.19C62.48 23.4 62.34 23.59 62.14 23.66C62.09 23.68 62.03 23.69 61.98 23.69C61.83 23.69 61.68 23.62 61.59 23.5C59.18 20.43 55.57 18.67 51.69 18.67C47.14 18.67 42.91 21.19 40.7 25.15H51.69C51.97 25.15 52.19 25.37 52.19 25.65V29.39C52.19 29.67 51.97 29.89 51.69 29.89H39.18C39.12 30.39 39.09 30.83 39.09 31.26C39.09 32.02 39.16 32.79 39.31 33.57H51.69C51.97 33.57 52.19 33.79 52.19 34.07V37.81C52.19 38.09 51.97 38.31 51.69 38.31H41.27C43.61 41.75 47.52 43.86 51.69 43.86C55.56 43.86 59.17 42.1 61.59 39.03C61.69 38.91 61.83 38.84 61.98 38.84C62.03 38.84 62.09 38.84 62.14 38.87C62.34 38.94 62.48 39.13 62.48 39.34V44.56C62.48 44.71 62.41 44.86 62.29 44.96C59.22 47.34 55.55 48.6 51.7 48.6H51.71Z" fill="#00C300"></path><path d="M51.71 14.43C55.59 14.43 59.15 15.76 62 17.97V23.19C59.6 20.14 55.89 18.17 51.71 18.17C46.5 18.17 42 21.24 39.9 25.65H51.71V29.39H38.77C38.68 30 38.62 30.62 38.62 31.26C38.62 32.22 38.73 33.16 38.93 34.07H51.71V37.81H40.39C42.66 41.72 46.88 44.36 51.71 44.36C55.88 44.36 59.6 42.39 62 39.34V44.56C59.15 46.77 55.59 48.1 51.71 48.1C44.75 48.1 38.76 43.85 36.2 37.81H31.13V34.07H35.12C34.97 33.16 34.87 32.22 34.87 31.26C34.87 30.63 34.91 30 34.98 29.39H31.13V25.65H35.85C38.17 19.12 44.39 14.43 51.7 14.43M51.71 13.43C44.43 13.43 37.87 17.91 35.17 24.65H31.14C30.59 24.65 30.14 25.1 30.14 25.65V29.39C30.14 29.94 30.59 30.39 31.14 30.39H33.91C33.89 30.69 33.89 30.98 33.89 31.26C33.89 31.84 33.92 32.44 33.99 33.07H31.15C30.6 33.07 30.15 33.52 30.15 34.07V37.81C30.15 38.36 30.6 38.81 31.15 38.81H35.57C38.5 45.08 44.78 49.1 51.73 49.1C55.7 49.1 59.47 47.8 62.63 45.35C62.87 45.16 63.02 44.87 63.02 44.56V39.34C63.02 38.91 62.75 38.53 62.35 38.4C62.24 38.36 62.13 38.34 62.02 38.34C61.72 38.34 61.43 38.48 61.23 38.72C58.91 41.67 55.45 43.36 51.73 43.36C48.01 43.36 44.58 41.65 42.3 38.81H51.73C52.28 38.81 52.73 38.36 52.73 37.81V34.07C52.73 33.52 52.28 33.07 51.73 33.07H39.78C39.69 32.46 39.64 31.86 39.64 31.26C39.64 30.98 39.65 30.7 39.68 30.39H51.74C52.29 30.39 52.74 29.94 52.74 29.39V25.65C52.74 25.1 52.29 24.65 51.74 24.65H41.64C43.86 21.27 47.67 19.17 51.74 19.17C55.46 19.17 58.92 20.86 61.24 23.81C61.43 24.06 61.73 24.19 62.03 24.19C62.14 24.19 62.25 24.17 62.36 24.13C62.76 23.99 63.03 23.61 63.03 23.19V17.97C63.03 17.66 62.89 17.37 62.64 17.18C59.48 14.73 55.71 13.43 51.74 13.43H51.71Z" fill="#131313"></path><path d="M8.53 91.5C9.2 91.51 35.21 64.31 43.6 56.57C45.03 55.25 47.21 55.22 48.68 56.49L87.53 91.5H8.53Z" fill="#fff" stroke="#131313" stroke-miterlimit="10"></path><path d="M74.02 50.45C73.94 50.45 73.85 50.43 73.78 50.39C73.62 50.3 73.52 50.13 73.52 49.95V34.7C73.52 34.52 73.62 34.36 73.77 34.27C73.85 34.23 73.93 34.2 74.02 34.2C74.11 34.2 74.19 34.22 74.27 34.27L86.77 41.52C86.92 41.61 87.02 41.77 87.02 41.94C87.02 42.11 86.94 42.28 86.79 42.37L74.29 50.37C74.21 50.42 74.11 50.45 74.02 50.45Z" fill="#FFAEE3"></path><path d="M74.02 34.7L86.52 41.95L74.02 49.95V34.7ZM74.02 33.7C73.85 33.7 73.68 33.74 73.52 33.83C73.21 34.01 73.02 34.34 73.02 34.7V49.95C73.02 50.32 73.22 50.65 73.54 50.83C73.69 50.91 73.85 50.95 74.02 50.95C74.21 50.95 74.4 50.9 74.56 50.79L87.06 42.79C87.35 42.6 87.53 42.27 87.52 41.93C87.52 41.58 87.32 41.26 87.02 41.09L74.52 33.84C74.37 33.75 74.19 33.71 74.02 33.71V33.7Z" fill="#131313"></path><path d="M21.03 50.45C20.93 50.45 20.84 50.42 20.75 50.37L8.71999 42.37C8.57999 42.28 8.48999 42.11 8.49999 41.94C8.50999 41.77 8.59999 41.61 8.73999 41.52L20.77 34.27C20.85 34.22 20.94 34.2 21.03 34.2C21.11 34.2 21.2 34.22 21.28 34.26C21.44 34.35 21.53 34.52 21.53 34.7V49.95C21.53 50.13 21.43 50.3 21.27 50.39C21.2 50.43 21.11 50.45 21.03 50.45Z" fill="#FFAEE3"></path><path d="M21.03 34.7V49.95L9 41.95L21.03 34.7ZM21.03 33.7C20.85 33.7 20.67 33.75 20.51 33.84L8.48 41.09C8.19 41.27 8 41.58 8 41.92C8 42.26 8.16 42.59 8.45 42.77L20.48 50.77C20.65 50.88 20.84 50.94 21.03 50.94C21.19 50.94 21.35 50.9 21.5 50.82C21.83 50.65 22.03 50.31 22.03 49.94V34.69C22.03 34.33 21.84 34 21.52 33.82C21.37 33.73 21.2 33.69 21.03 33.69V33.7Z" fill="#131313"></path><path d="M4 91.5H92" stroke="#131313" stroke-miterlimit="10"></path></g><defs><clipPath id="a"><rect width="96" height="96" fill="#fff"></rect></clipPath></defs></svg>