<svg fill="none" xmlns="http://www.w3.org/2000/svg" viewBox="0 0 96 96" width="100%" height="100%" focusable="false" aria-hidden="true"><g clip-path="url(#a)"><path d="M48 91.5C45.7 91.5 43.47 90.67 41.72 89.16L18.86 69.42C16.72 67.57 15.49 64.88 15.49 62.05V20.21C15.49 14.85 19.82 10.5 25.13 10.5H70.84C76.16 10.5 80.48 14.86 80.48 20.21V62.04C80.48 64.88 79.25 67.57 77.11 69.41L54.25 89.15C52.5 90.66 50.27 91.49 47.97 91.49L48 91.5Z" fill="#8C97FF"></path><path d="M70.86 11C75.91 11 80 15.12 80 20.21V62.04C80 64.73 78.83 67.28 76.81 69.04L53.95 88.78C52.24 90.26 50.12 91 48 91C45.88 91 43.76 90.26 42.05 88.78L19.19 69.04C17.16 67.29 16 64.73 16 62.04V20.21C16 15.12 20.09 11 25.14 11H70.85M70.86 10H25.14C19.55 10 15 14.58 15 20.21V62.04C15 65.02 16.29 67.85 18.54 69.79L41.4 89.53C43.24 91.12 45.58 91.99 48 91.99C50.42 91.99 52.77 91.12 54.6 89.53L77.46 69.79C79.71 67.85 81 65.02 81 62.04V20.21C81 14.58 76.45 10 70.86 10Z" fill="#131313"></path><path d="M48 85.5C45.7 85.5 43.47 84.67 41.72 83.16L18.86 63.42C16.72 61.57 15.49 58.88 15.49 56.05V14.21C15.49 8.85 19.82 4.5 25.13 4.5H70.84C76.16 4.5 80.48 8.86 80.48 14.21V56.04C80.48 58.88 79.25 61.57 77.11 63.41L54.25 83.15C52.5 84.66 50.27 85.49 47.97 85.49L48 85.5Z" fill="#fff"></path><path d="M70.86 5C75.91 5 80 9.12 80 14.21V56.04C80 58.73 78.83 61.28 76.81 63.04L53.95 82.78C52.24 84.26 50.12 85 48 85C45.88 85 43.76 84.26 42.05 82.78L19.19 63.04C17.16 61.29 16 58.73 16 56.04V14.21C16 9.12 20.09 5 25.14 5H70.85M70.86 4H25.14C19.55 4 15 8.58 15 14.21V56.04C15 59.02 16.29 61.85 18.54 63.79L41.4 83.53C43.24 85.12 45.58 85.99 48 85.99C50.42 85.99 52.77 85.12 54.6 83.53L77.46 63.79C79.71 61.85 81 59.02 81 56.04V14.21C81 8.58 76.45 4 70.86 4Z" fill="#131313"></path><path d="M44.93 62.31C43.37 62.3 41.91 61.45 41.11 60.12L27.8 37.81C27.66 37.57 27.74 37.27 27.97 37.12L34.84 33.02C34.92 32.97 35.01 32.95 35.1 32.95C35.14 32.95 35.18 32.95 35.22 32.97C35.35 33 35.46 33.08 35.53 33.2L45.06 49.17L63.47 19.62C63.54 19.51 63.65 19.43 63.78 19.4C63.82 19.4 63.86 19.39 63.89 19.39C63.98 19.39 64.07 19.42 64.15 19.47L70.94 23.7C71.17 23.85 71.25 24.15 71.1 24.39L48.79 60.2C47.96 61.53 46.54 62.32 44.97 62.32H44.93V62.31Z" fill="#00C300"></path><path d="M63.9 19.88L70.69 24.11L48.38 59.92C47.65 61.09 46.36 61.8 44.98 61.8H44.94C43.54 61.79 42.26 61.05 41.54 59.85L28.23 37.54L35.1 33.44L45.05 50.12L63.89 19.88M63.9 18.88C63.57 18.88 63.24 19.05 63.05 19.35L45.07 48.2L35.96 32.93C35.77 32.62 35.44 32.44 35.1 32.44C34.93 32.44 34.75 32.49 34.59 32.58L27.72 36.68C27.49 36.82 27.33 37.04 27.26 37.29C27.2 37.55 27.24 37.82 27.37 38.05L40.68 60.36C41.57 61.85 43.19 62.78 44.93 62.8C46.72 62.8 48.3 61.92 49.22 60.44L71.53 24.63C71.82 24.16 71.68 23.54 71.21 23.25L64.42 19.02C64.26 18.92 64.07 18.87 63.89 18.87L63.9 18.88Z" fill="#131313"></path><path d="M4 91.5H92" stroke="#131313" stroke-miterlimit="10"></path></g><defs><clipPath id="a"><rect width="96" height="96" fill="#fff"></rect></clipPath></defs></svg>