<svg fill="none" xmlns="http://www.w3.org/2000/svg" viewBox="0 0 96 96" width="100%" height="100%" focusable="false" aria-hidden="true"><g clip-path="url(#a)"><path d="M47.23 90.5C23.52 90.5 4.23 71.88 4.23 49C4.23 48.81 4.23 48.62 4.24 48.43L4.26 47.6H90.19L90.21 48.41C90.21 48.6 90.22 48.8 90.22 48.99C90.22 71.87 70.93 90.49 47.22 90.49L47.23 90.5Z" fill="#FFAEE3"></path><path d="M89.71 48.1C89.71 48.4 89.73 48.69 89.73 49C89.73 71.64 70.7 90 47.23 90C23.76 90 4.73 71.64 4.73 49C4.73 48.7 4.75 48.4 4.75 48.1H89.7M90.69 47.1H3.78L3.76 48.08V48.41C3.74 48.6 3.74 48.8 3.74 48.99C3.74 72.15 23.25 90.99 47.24 90.99C71.23 90.99 90.74 72.15 90.74 48.99C90.74 48.79 90.74 48.59 90.73 48.39V48.07L90.7 47.09L90.69 47.1Z" fill="#131313"></path><path d="M4.76 50.25C4.49 50.25 4.27 50.03 4.26 49.76V49.42C4.24 49.23 4.24 49.04 4.24 48.85C4.23 25.97 23.52 7.35 47.23 7.35C70.94 7.35 90.23 25.97 90.23 48.85C90.23 49.04 90.23 49.24 90.22 49.43V49.76C90.2 50.03 89.98 50.25 89.71 50.25H4.76Z" fill="#00C300"></path><path d="M47.23 7.85C70.7 7.85 89.73 26.21 89.73 48.85C89.73 49.15 89.71 49.45 89.71 49.75H4.76C4.76 49.45 4.74 49.16 4.74 48.85C4.73 26.21 23.76 7.85 47.23 7.85ZM47.23 6.85C23.25 6.85 3.73 25.69 3.73 48.85C3.73 49.05 3.73 49.24 3.74 49.43V49.76C3.76 50.3 4.21 50.74 4.75 50.74H89.7C90.24 50.74 90.69 50.31 90.7 49.76V49.44C90.72 49.24 90.72 49.04 90.72 48.84C90.72 25.68 71.21 6.84 47.22 6.84L47.23 6.85Z" fill="#131313"></path><path d="M50.73 90.75C73.3737 90.75 91.73 72.3937 91.73 49.75C91.73 27.1063 73.3737 8.75 50.73 8.75C28.0863 8.75 9.73 27.1063 9.73 49.75C9.73 72.3937 28.0863 90.75 50.73 90.75Z" stroke="#131313" stroke-miterlimit="10"></path><path d="M50.73 90.75C73.3737 90.75 91.73 72.0579 91.73 49C91.73 25.9421 73.3737 7.25 50.73 7.25C28.0863 7.25 9.73 25.9421 9.73 49C9.73 72.0579 28.0863 90.75 50.73 90.75Z" fill="#fff" stroke="#131313" stroke-miterlimit="10"></path><path d="M52.15 90.75C64.6427 90.75 74.77 72.0579 74.77 49C74.77 25.9421 64.6427 7.25 52.15 7.25C39.6573 7.25 29.53 25.9421 29.53 49C29.53 72.0579 39.6573 90.75 52.15 90.75Z" stroke="#131313" stroke-miterlimit="10"></path><path d="M51.21 6.75V90.27" stroke="#131313" stroke-miterlimit="10"></path><path d="M92.21 50.22H9.26" stroke="#131313" stroke-miterlimit="10"></path><path d="M4 91.5H92" stroke="#131313" stroke-miterlimit="10"></path></g><defs><clipPath id="a"><rect width="96" height="96" fill="#fff"></rect></clipPath></defs></svg>