<svg fill="none" xmlns="http://www.w3.org/2000/svg" viewBox="0 0 96 96" width="100%" height="100%" focusable="false" aria-hidden="true"><g clip-path="url(#a)"><path d="M4 91.5H92" stroke="#131313" stroke-miterlimit="10"></path><path d="M31.5 10.14C30.52 10.14 29.62 10.46 28.88 10.99C27.71 9.27001 25.74 8.14001 23.5 8.14001C21.44 8.14001 19.61 9.10001 18.42 10.59C17.83 10.31 17.19 10.14 16.5 10.14C14.01 10.14 12 12.15 12 14.64C12 17.13 14.01 19.14 16.5 19.14C17.19 19.14 17.84 18.97 18.42 18.69C19.61 20.18 21.44 21.14 23.5 21.14C25.74 21.14 27.71 20.01 28.88 18.29C29.62 18.82 30.52 19.14 31.5 19.14C33.99 19.14 36 17.13 36 14.64C36 12.15 33.99 10.14 31.5 10.14Z" fill="#FEF2F0" stroke="#131313" stroke-miterlimit="10"></path><path d="M79.5 20.26C78.52 20.26 77.62 20.58 76.88 21.11C75.71 19.39 73.74 18.26 71.5 18.26C69.44 18.26 67.61 19.22 66.42 20.71C65.83 20.43 65.19 20.26 64.5 20.26C62.01 20.26 60 22.27 60 24.76C60 27.25 62.01 29.26 64.5 29.26C65.19 29.26 65.84 29.09 66.42 28.81C67.61 30.3 69.44 31.26 71.5 31.26C73.74 31.26 75.71 30.13 76.88 28.41C77.62 28.94 78.52 29.26 79.5 29.26C81.99 29.26 84 27.25 84 24.76C84 22.27 81.99 20.26 79.5 20.26Z" fill="#FEF2F0" stroke="#131313" stroke-miterlimit="10"></path><path d="M48.5 91.5V38.5C48.5 35.74 50.74 33.5 53.5 33.5H76.5C79.26 33.5 81.5 35.74 81.5 38.5V91.5H48.5Z" fill="#fff" stroke="#131313" stroke-miterlimit="10"></path><path d="M72.5 40.5H56.5V46.5H72.5V40.5Z" fill="#8C97FF"></path><path d="M72 41V46H57V41H72ZM73 40H56V47H73V40Z" fill="#131313"></path><path d="M72.5 50.5H56.5V56.5H72.5V50.5Z" fill="#8C97FF"></path><path d="M72 51V56H57V51H72ZM73 50H56V57H73V50Z" fill="#131313"></path><path d="M72.5 60.5H64.5V66.5H72.5V60.5Z" fill="#8C97FF"></path><path d="M72 61V66H65V61H72ZM73 60H64V67H73V60Z" fill="#131313"></path><path d="M72.5 70.5H64.5V76.5H72.5V70.5Z" fill="#8C97FF"></path><path d="M72 71V76H65V71H72ZM73 70H64V77H73V70Z" fill="#131313"></path><path d="M72.5 80.5H64.5V86.5H72.5V80.5Z" fill="#8C97FF"></path><path d="M72 81V86H65V81H72ZM73 80H64V87H73V80Z" fill="#131313"></path><path d="M31.5 91.5V58.5C31.5 55.74 33.74 53.5 36.5 53.5H59.5C62.26 53.5 64.5 55.74 64.5 58.5V91.5H31.5Z" fill="#fff" stroke="#131313" stroke-miterlimit="10"></path><path d="M45.5 59.5H39.5V65.5H45.5V59.5Z" fill="#FED04D"></path><path d="M45 60V65H40V60H45ZM46 59H39V66H46V59Z" fill="#131313"></path><path d="M55.5 59.5H49.5V65.5H55.5V59.5Z" fill="#00C300"></path><path d="M55 60V65H50V60H55ZM56 59H49V66H56V59Z" fill="#131313"></path><path d="M45.5 69.5H39.5V75.5H45.5V69.5Z" fill="#00C300"></path><path d="M45 70V75H40V70H45ZM46 69H39V76H46V69Z" fill="#131313"></path><path d="M55.5 69.5H49.5V75.5H55.5V69.5Z" fill="#FED04D"></path><path d="M55 70V75H50V70H55ZM56 69H49V76H56V69Z" fill="#131313"></path><path d="M45.5 79.5H39.5V85.5H45.5V79.5Z" fill="#00C300"></path><path d="M45 80V85H40V80H45ZM46 79H39V86H46V79Z" fill="#131313"></path><path d="M55.5 79.5H49.5V85.5H55.5V79.5Z" fill="#00C300"></path><path d="M55 80V85H50V80H55ZM56 79H49V86H56V79Z" fill="#131313"></path><path d="M4 91.5H92" stroke="#131313" stroke-miterlimit="10"></path></g><defs><clipPath id="a"><rect width="96" height="96" fill="#fff"></rect></clipPath></defs></svg>