<svg fill="none" xmlns="http://www.w3.org/2000/svg" viewBox="0 0 96 96" width="100%" height="100%" focusable="false" aria-hidden="true"><path d="M48 91.5C24.01 91.5 4.5 73.11 4.5 50.5C4.5 27.89 24.01 9.5 48 9.5C71.99 9.5 91.5 27.89 91.5 50.5C91.5 73.11 71.99 91.5 48 91.5Z" fill="#8C97FF"></path><path d="M48 10C71.71 10 91 28.17 91 50.5C91 72.83 71.71 91 48 91C24.29 91 5 72.83 5 50.5C5 28.17 24.29 10 48 10ZM48 9C23.74 9 4 27.62 4 50.5C4 73.38 23.74 92 48 92C72.26 92 92 73.38 92 50.5C92 27.62 72.26 9 48 9Z" fill="#131313"></path><path d="M50.5 91.5C27.89 91.5 9.5 73.11 9.5 50.5C9.5 27.89 27.89 9.5 50.5 9.5C73.11 9.5 91.5 27.89 91.5 50.5C91.5 73.11 73.11 91.5 50.5 91.5Z" fill="#fff"></path><path d="M50.5 10C72.83 10 91 28.17 91 50.5C91 72.83 72.83 91 50.5 91C28.17 91 10 72.83 10 50.5C10 28.17 28.17 10 50.5 10ZM50.5 9C27.62 9 9 27.62 9 50.5C9 73.38 27.62 92 50.5 92C73.38 92 92 73.38 92 50.5C92 27.62 73.38 9 50.5 9Z" fill="#131313"></path><path d="M50.03 48.5C44.52 48.5 40.03 44.01 40.03 38.5C40.03 32.99 44.52 28.5 50.03 28.5C55.54 28.5 60.03 32.99 60.03 38.5C60.03 44.01 55.54 48.5 50.03 48.5Z" fill="#00C300"></path><path d="M50.03 29C55.27 29 59.53 33.26 59.53 38.5C59.53 43.74 55.27 48 50.03 48C44.79 48 40.53 43.74 40.53 38.5C40.53 33.26 44.79 29 50.03 29ZM50.03 28C44.23 28 39.53 32.7 39.53 38.5C39.53 44.3 44.23 49 50.03 49C55.83 49 60.53 44.3 60.53 38.5C60.53 32.7 55.83 28 50.03 28Z" fill="#131313"></path><path d="M35.03 69.5C34.75 69.5 34.53 69.28 34.53 69V62.75C34.53 54.89 41.48 48.5 50.03 48.5C54.17 48.5 58.05 49.98 60.98 52.66C63.92 55.35 65.53 58.94 65.53 62.75V69C65.53 69.28 65.31 69.5 65.03 69.5H35.03Z" fill="#00C300"></path><path d="M50.03 49C54.18 49 57.93 50.54 60.64 53.02C63.35 55.51 65.03 58.95 65.03 62.75V69H35.03V62.75C35.03 55.15 41.74 49 50.03 49ZM50.03 48C41.21 48 34.03 54.62 34.03 62.75V69C34.03 69.55 34.48 70 35.03 70H65.03C65.58 70 66.03 69.55 66.03 69V62.75C66.03 58.79 64.36 55.08 61.32 52.29C58.3 49.53 54.3 48 50.03 48Z" fill="#131313"></path><path d="M4 91.5H92" stroke="#131313" stroke-miterlimit="10"></path></svg>