<svg fill="none" xmlns="http://www.w3.org/2000/svg" viewBox="0 0 96 96" width="100%" height="100%" focusable="false" aria-hidden="true"><g clip-path="url(#a)"><g clip-path="url(#b)"><path d="M9.52 68.05C-0.870004 47.38 7.26 22.1 27.68 11.58C48.1 1.06 73.08 9.28 83.48 29.95C93.88 50.62 85.75 75.9 65.33 86.42C53.5 92.51 39.51 92.51 27.68 86.42L11.77 89.63C9.28 90.13 6.85 88.49 6.36 85.97C6.24 85.37 6.24 84.75 6.36 84.16L9.53 68.05H9.52Z" fill="#8C97FF" stroke="#131313" stroke-miterlimit="10"></path><path d="M50.5 90.46C44.12 90.46 37.75 88.93 32.06 86.03L16.7 89.13C16.38 89.19 16.05 89.23 15.72 89.23C13.35 89.23 11.29 87.52 10.83 85.16C10.7 84.51 10.7 83.85 10.83 83.2L13.9 67.65C3.76 47.3 11.81 22.37 31.9 12.02C37.73 9.02 43.97 7.5 50.47 7.5C65.99 7.5 80 16.19 87.03 30.17C97.28 50.55 89.24 75.57 69.1 85.95C63.37 88.9 56.94 90.47 50.5 90.47V90.46Z" fill="#fff"></path><path d="M50.47 8C65.22 8 79.44 16.18 86.59 30.4C96.74 50.57 88.8 75.24 68.88 85.51C63.11 88.48 56.81 89.97 50.51 89.97C44.21 89.97 37.91 88.48 32.14 85.51L16.61 88.65C16.31 88.71 16.02 88.74 15.73 88.74C13.63 88.74 11.75 87.24 11.33 85.08C11.22 84.5 11.22 83.89 11.33 83.31L14.43 67.59C4.28 47.42 12.22 22.75 32.15 12.48C38.03 9.45 44.31 8.01 50.49 8.01M50.47 7C43.9 7 37.57 8.54 31.68 11.58C11.39 22.03 3.23 47.15 13.37 67.72L10.34 83.1C10.2 83.82 10.2 84.54 10.34 85.26C10.85 87.85 13.11 89.73 15.72 89.73C16.08 89.73 16.44 89.69 16.8 89.62L31.99 86.55C37.71 89.44 44.11 90.96 50.5 90.96C56.89 90.96 63.52 89.38 69.33 86.39C89.71 75.89 97.85 50.57 87.48 29.94C80.36 15.79 66.18 6.99 50.47 6.99V7Z" fill="#131313"></path><path d="M43.97 71.5V38.75H56.02V71.5H43.97ZM49.98 36.61C48.18 36.61 46.58 36.03 45.23 34.87C43.86 33.7 43.16 32.11 43.16 30.15C43.16 28.19 43.85 26.6 45.23 25.43C46.58 24.28 48.17 23.69 49.98 23.69C51.79 23.69 53.41 24.28 54.74 25.43C56.1 26.6 56.79 28.19 56.79 30.15C56.79 32.11 56.1 33.7 54.74 34.87C53.4 36.02 51.8 36.61 49.98 36.61Z" fill="#00C300"></path><path d="M49.98 24.19C51.69 24.19 53.17 24.73 54.42 25.81C55.67 26.89 56.29 28.34 56.29 30.15C56.29 31.96 55.67 33.41 54.42 34.49C53.17 35.57 51.69 36.11 49.98 36.11C48.27 36.11 46.82 35.57 45.56 34.49C44.3 33.41 43.67 31.96 43.67 30.15C43.67 28.34 44.3 26.89 45.56 25.81C46.82 24.73 48.29 24.19 49.98 24.19ZM55.53 39.25V71H44.48V39.25H55.53ZM49.98 23.19C48.06 23.19 46.35 23.82 44.91 25.05C43.42 26.32 42.67 28.04 42.67 30.15C42.67 32.26 43.42 33.98 44.91 35.25C46.35 36.48 48.06 37.11 49.98 37.11C51.9 37.11 53.64 36.48 55.07 35.25C56.54 33.98 57.29 32.26 57.29 30.15C57.29 28.04 56.54 26.32 55.07 25.05C53.64 23.81 51.93 23.19 49.98 23.19ZM56.53 38.25H43.48V72H56.53V38.25Z" fill="#131313"></path><path d="M4 91.5H92" stroke="#131313" stroke-miterlimit="10"></path></g></g><defs><clipPath id="a"><rect width="96" height="96" fill="#fff"></rect></clipPath><clipPath id="b"><rect width="96" height="96" fill="#fff"></rect></clipPath></defs></svg>