<svg fill="none" xmlns="http://www.w3.org/2000/svg" viewBox="0 0 96 96" width="100%" height="100%" focusable="false" aria-hidden="true"><g clip-path="url(#a)"><path d="M66.5 4.5H28.5C24.0817 4.5 20.5 8.08172 20.5 12.5V83.5C20.5 87.9183 24.0817 91.5 28.5 91.5H66.5C70.9183 91.5 74.5 87.9183 74.5 83.5V12.5C74.5 8.08172 70.9183 4.5 66.5 4.5Z" fill="#00C300"></path><path d="M66.5 4.5H28.5C24.0817 4.5 20.5 8.08172 20.5 12.5V83.5C20.5 87.9183 24.0817 91.5 28.5 91.5H66.5C70.9183 91.5 74.5 87.9183 74.5 83.5V12.5C74.5 8.08172 70.9183 4.5 66.5 4.5Z" stroke="#131313" stroke-linejoin="round"></path><path d="M66.5 4.5H33.5C29.0817 4.5 25.5 8.08172 25.5 12.5V83.5C25.5 87.9183 29.0817 91.5 33.5 91.5H66.5C70.9183 91.5 74.5 87.9183 74.5 83.5V12.5C74.5 8.08172 70.9183 4.5 66.5 4.5Z" fill="#8C97FF"></path><path d="M66.5 4.5H33.5C29.0817 4.5 25.5 8.08172 25.5 12.5V83.5C25.5 87.9183 29.0817 91.5 33.5 91.5H66.5C70.9183 91.5 74.5 87.9183 74.5 83.5V12.5C74.5 8.08172 70.9183 4.5 66.5 4.5Z" stroke="#131313" stroke-miterlimit="10"></path><path d="M65.5 7.5H34.5C31.1863 7.5 28.5 10.1863 28.5 13.5V82.5C28.5 85.8137 31.1863 88.5 34.5 88.5H65.5C68.8137 88.5 71.5 85.8137 71.5 82.5V13.5C71.5 10.1863 68.8137 7.5 65.5 7.5Z" fill="#fff"></path><path d="M65.5 7.5H34.5C31.1863 7.5 28.5 10.1863 28.5 13.5V82.5C28.5 85.8137 31.1863 88.5 34.5 88.5H65.5C68.8137 88.5 71.5 85.8137 71.5 82.5V13.5C71.5 10.1863 68.8137 7.5 65.5 7.5Z" stroke="#131313" stroke-miterlimit="10"></path><path d="M66.5 4.5H33.5C29.0817 4.5 25.5 8.08172 25.5 12.5V83.5C25.5 87.9183 29.0817 91.5 33.5 91.5H66.5C70.9183 91.5 74.5 87.9183 74.5 83.5V12.5C74.5 8.08172 70.9183 4.5 66.5 4.5Z" fill="#8C97FF"></path><path d="M66.5 4.5H33.5C29.0817 4.5 25.5 8.08172 25.5 12.5V83.5C25.5 87.9183 29.0817 91.5 33.5 91.5H66.5C70.9183 91.5 74.5 87.9183 74.5 83.5V12.5C74.5 8.08172 70.9183 4.5 66.5 4.5Z" stroke="#131313" stroke-miterlimit="10"></path><path d="M65.5 7.5H34.5C31.1863 7.5 28.5 10.1863 28.5 13.5V82.5C28.5 85.8137 31.1863 88.5 34.5 88.5H65.5C68.8137 88.5 71.5 85.8137 71.5 82.5V13.5C71.5 10.1863 68.8137 7.5 65.5 7.5Z" fill="#fff"></path><path d="M65.5 7.5H34.5C31.1863 7.5 28.5 10.1863 28.5 13.5V82.5C28.5 85.8137 31.1863 88.5 34.5 88.5H65.5C68.8137 88.5 71.5 85.8137 71.5 82.5V13.5C71.5 10.1863 68.8137 7.5 65.5 7.5Z" stroke="#131313" stroke-miterlimit="10"></path><path d="M13.5 56.5H38.14L31.51 50.15L36.71 45L52.05 60.5L36.71 76L31.51 70.85L38.14 64.5H13.5V56.5Z" fill="#C0EDFF" stroke="#131313" stroke-miterlimit="10"></path><path d="M81.5 32.5H56.91L63.54 26.15L58.34 21L43 36.5L58.34 52L63.54 46.85L56.91 40.5H81.5V32.5Z" fill="#C0EDFF" stroke="#131313" stroke-miterlimit="10"></path><path d="M55 12.5H45C43.6193 12.5 42.5 13.6193 42.5 15C42.5 16.3807 43.6193 17.5 45 17.5H55C56.3807 17.5 57.5 16.3807 57.5 15C57.5 13.6193 56.3807 12.5 55 12.5Z" fill="#fff" stroke="#131313" stroke-miterlimit="10"></path><path d="M4 91.5H92" stroke="#131313" stroke-miterlimit="10"></path></g><defs><clipPath id="a"><rect width="96" height="96" fill="#fff"></rect></clipPath></defs></svg>