
<svg fill="none" xmlns="http://www.w3.org/2000/svg" viewBox="0 0 96 96" width="100%" height="100%" focusable="false" aria-hidden="true"><g clip-path="url(#a)"><path d="M52.5 14C31.27 14 14 31.27 14 52.5C14 73.73 31.27 91 52.5 91C73.73 91 91 73.73 91 52.5C91 31.27 73.73 14 52.5 14Z" fill="#8C97FF" stroke="#131313" stroke-miterlimit="10"></path><path d="M52.5 86.5C31 86.5 13.5 69 13.5 47.5C13.5 26 31 8.5 52.5 8.5C74 8.5 91.5 26 91.5 47.5C91.5 69 74 86.5 52.5 86.5Z" fill="#fff" stroke="#131313" stroke-miterlimit="10"></path><path d="M52.5 9C73.73 9 91 26.27 91 47.5C91 68.73 73.73 86 52.5 86C31.27 86 14 68.73 14 47.5C14 26.27 31.27 9 52.5 9ZM52.5 8C30.72 8 13 25.72 13 47.5C13 69.28 30.72 87 52.5 87C74.28 87 92 69.28 92 47.5C92 25.72 74.28 8 52.5 8Z" fill="#131313"></path><path d="M50.02 63.5C47.75 63.5 45.61 62.61 44 61C42.17 59.17 41.28 56.65 41.55 54.08C41.82 51.51 43.22 49.23 45.39 47.82L73.18 29.76C73.43 29.6 73.72 29.51 74 29.51C74.54 29.51 75.06 29.83 75.33 30.31C75.59 30.79 75.57 31.36 75.26 31.83L57.2 59.62C55.62 62.05 52.94 63.5 50.04 63.5H50.02Z" fill="#00C300"></path><path d="M73.99 30C74.71 30 75.3 30.83 74.83 31.56L56.77 59.35C55.21 61.75 52.63 63.01 50.03 63.01C47.99 63.01 45.94 62.24 44.36 60.66C40.75 57.05 41.38 51.03 45.66 48.25L73.45 30.19C73.63 30.07 73.82 30.02 74 30.02M73.99 29C73.61 29 73.23 29.11 72.9 29.33L45.11 47.39C42.82 48.88 41.33 51.3 41.05 54.02C40.76 56.74 41.71 59.41 43.65 61.35C45.36 63.06 47.62 64 50.03 64C53.1 64 55.94 62.46 57.61 59.89L75.67 32.1C76.08 31.47 76.11 30.71 75.76 30.07C75.4 29.41 74.73 29 73.99 29Z" fill="#131313"></path><path d="M39.22 41H8.22C6.84 41 5.84 39.88 5.98 38.5C6.12 37.12 7.36 36 8.74 36H39.74C41.12 36 42.12 37.12 41.98 38.5C41.84 39.88 40.6 41 39.22 41Z" fill="#FFAEE3" stroke="#131313" stroke-miterlimit="10"></path><path d="M33.41 63H6.41C5.03 63 4.03 61.88 4.17 60.5C4.32 59.12 5.55 58 6.93 58H33.93C35.31 58 36.31 59.12 36.17 60.5C36.02 61.88 34.79 63 33.41 63Z" fill="#FFAEE3" stroke="#131313" stroke-miterlimit="10"></path><path d="M31.2 52H11.2C9.81998 52 8.81998 50.88 8.95998 49.5C9.09998 48.12 10.34 47 11.72 47H31.72C33.1 47 34.1 48.12 33.96 49.5C33.82 50.88 32.58 52 31.2 52Z" fill="#FFAEE3" stroke="#131313" stroke-miterlimit="10"></path><path d="M4 91.5H92" stroke="#131313" stroke-miterlimit="10"></path></g><defs><clipPath id="a"><rect width="96" height="96" fill="#fff"></rect></clipPath></defs></svg>