<svg fill="none" xmlns="http://www.w3.org/2000/svg" viewBox="0 0 96 96" width="100%" height="100%" focusable="false" aria-hidden="true"><g clip-path="url(#a)"><path d="M48 91.5C24.01 91.5 4.5 73.11 4.5 50.5C4.5 27.89 24.01 9.5 48 9.5C71.99 9.5 91.5 27.89 91.5 50.5C91.5 73.11 71.99 91.5 48 91.5Z" fill="#8C97FF"></path><path d="M48 10C71.71 10 91 28.17 91 50.5C91 72.83 71.71 91 48 91C24.29 91 5 72.83 5 50.5C5 28.17 24.29 10 48 10ZM48 9C23.74 9 4 27.62 4 50.5C4 73.38 23.74 92 48 92C72.26 92 92 73.38 92 50.5C92 27.62 72.26 9 48 9Z" fill="#131313"></path><path d="M50.5 91.5C27.89 91.5 9.5 73.11 9.5 50.5C9.5 27.89 27.89 9.5 50.5 9.5C73.11 9.5 91.5 27.89 91.5 50.5C91.5 73.11 73.11 91.5 50.5 91.5Z" fill="#fff"></path><path d="M50.5 10C72.83 10 91 28.17 91 50.5C91 72.83 72.83 91 50.5 91C28.17 91 10 72.83 10 50.5C10 28.17 28.17 10 50.5 10ZM50.5 9C27.62 9 9 27.62 9 50.5C9 73.38 27.62 92 50.5 92C73.38 92 92 73.38 92 50.5C92 27.62 73.38 9 50.5 9Z" fill="#131313"></path><path d="M50.5 73C49.3 73 48.17 72.53 47.32 71.68C45.57 69.93 45.57 67.07 47.32 65.32C48.17 64.47 49.3 64 50.5 64C51.7 64 52.83 64.47 53.68 65.32C55.43 67.07 55.43 69.93 53.68 71.68C52.83 72.53 51.7 73 50.5 73Z" fill="#00C300"></path><path d="M50.5 64.5C51.52 64.5 52.55 64.89 53.33 65.67C54.89 67.23 54.89 69.76 53.33 71.33C52.55 72.11 51.52 72.5 50.5 72.5C49.48 72.5 48.45 72.11 47.67 71.33C46.11 69.77 46.11 67.24 47.67 65.67C48.45 64.89 49.48 64.5 50.5 64.5ZM50.5 63.5C49.16 63.5 47.91 64.02 46.96 64.96C45.01 66.91 45.01 70.08 46.96 72.03C47.9 72.97 49.16 73.49 50.5 73.49C51.84 73.49 53.09 72.97 54.04 72.03C55.99 70.08 55.99 66.91 54.04 64.96C53.1 64.02 51.84 63.5 50.5 63.5Z" fill="#131313"></path><path d="M50 31C39.45 31 29.9 35.28 22.99 42.19L27.73 46.93C33.43 41.23 41.32 37.69 50 37.69C58.68 37.69 66.57 41.22 72.27 46.93L77.01 42.19C70.1 35.28 60.55 31 50 31Z" fill="#00C300" stroke="#131313" stroke-miterlimit="10"></path><path d="M50 52.6899C45.44 52.6899 41.32 54.5399 38.33 57.5199L43.06 62.2499C44.84 60.4699 47.29 59.3699 50 59.3699C52.71 59.3699 55.16 60.4699 56.94 62.2599L61.67 57.5299C58.69 54.5399 54.56 52.6899 50 52.6899Z" fill="#00C300" stroke="#131313" stroke-miterlimit="10"></path><path d="M50 41.29C42.29 41.29 35.32 44.41 30.27 49.46L35 54.19C38.84 50.35 44.15 47.97 49.99 47.97C55.83 47.97 61.14 50.35 64.98 54.19L69.71 49.46C64.67 44.41 57.69 41.28 49.99 41.28L50 41.29Z" fill="#00C300" stroke="#131313" stroke-miterlimit="10"></path><path d="M4 91.5H92" stroke="#131313" stroke-miterlimit="10"></path></g><defs><clipPath id="a"><rect width="96" height="96" fill="#fff"></rect></clipPath></defs></svg>