<svg fill="none" xmlns="http://www.w3.org/2000/svg" viewBox="0 0 96 96" width="100%" height="100%" focusable="false" aria-hidden="true"><g clip-path="url(#a)"><path d="M36.5 91C41.1944 91 45 87.1944 45 82.5C45 77.8056 41.1944 74 36.5 74C31.8056 74 28 77.8056 28 82.5C28 87.1944 31.8056 91 36.5 91Z" fill="#00C300" stroke="#131313" stroke-linejoin="round"></path><path d="M36.5 85.5C38.1569 85.5 39.5 84.1569 39.5 82.5C39.5 80.8431 38.1569 79.5 36.5 79.5C34.8431 79.5 33.5 80.8431 33.5 82.5C33.5 84.1569 34.8431 85.5 36.5 85.5Z" fill="#fff" stroke="#131313" stroke-linejoin="round"></path><path d="M67.5 91C72.1944 91 76 87.1944 76 82.5C76 77.8056 72.1944 74 67.5 74C62.8056 74 59 77.8056 59 82.5C59 87.1944 62.8056 91 67.5 91Z" fill="#00C300" stroke="#131313" stroke-linejoin="round"></path><path d="M67.5 85.5C69.1569 85.5 70.5 84.1569 70.5 82.5C70.5 80.8431 69.1569 79.5 67.5 79.5C65.8431 79.5 64.5 80.8431 64.5 82.5C64.5 84.1569 65.8431 85.5 67.5 85.5Z" fill="#fff" stroke="#131313" stroke-linejoin="round"></path><path d="M26 44.5H87" stroke="#131313" stroke-linejoin="round"></path><path d="M64.5 31V59" stroke="#131313" stroke-linejoin="round"></path><path d="M78.5 31V58.88" stroke="#131313" stroke-linejoin="round"></path><path d="M84.5 31V44.3" stroke="#131313" stroke-linejoin="round"></path><path d="M71.5 31V59" stroke="#131313" stroke-linejoin="round"></path><path d="M57.5 31V59" stroke="#131313" stroke-linejoin="round"></path><path d="M50.5 31V59" stroke="#131313" stroke-linejoin="round"></path><path d="M43.5 31V59" stroke="#131313" stroke-linejoin="round"></path><path d="M36.5 31V59" stroke="#131313" stroke-linejoin="round"></path><path d="M29.5 30V59" stroke="#131313" stroke-linejoin="round"></path><path d="M26.5 62.5V59.5H76.66C77.74 59.5 78.69 58.81 79.03 57.79L88.39 33.72C88.63 33 88.48 32.18 88.02 31.54C87.54 30.88 86.81 30.5 85.99 30.5H20.5V27.5H86C87.79 27.5 89.42 28.33 90.46 29.78C91.51 31.23 91.78 33.04 91.22 34.74L81.86 58.81C81.13 60.99 79 62.5 76.67 62.5H26.5Z" fill="#fff"></path><path d="M86 28C87.63 28 89.1 28.76 90.06 30.08C91.02 31.4 91.26 33.04 90.76 34.54L81.39 58.63V58.65L81.37 58.67C80.72 60.63 78.78 61.99 76.66 61.99H27V59.99H76.66C77.95 59.99 79.1 59.17 79.49 57.99L88.86 33.9V33.88L88.88 33.86C89.16 33.02 88.99 32.02 88.43 31.25C87.86 30.46 86.97 30 86 30H21V28H86ZM86 27H20V31H86C86.65 31 87.24 31.3 87.62 31.83C88 32.36 88.1 33.01 87.93 33.54L78.56 57.63C78.29 58.45 77.52 59 76.66 59H26V63H76.66C79.25 63 81.53 61.35 82.32 58.99L91.69 34.9C92.31 33.05 92.01 31.08 90.87 29.49C89.73 27.91 87.95 27 86 27Z" fill="#131313"></path><path d="M83.45 73.5H30.94C27.71 73.5 24.94 71.08 24.5 67.88L17.44 20.85C17.34 20.07 16.7 19.51 15.95 19.51H4.95V14.51H15.95C19.2 14.51 21.97 16.94 22.39 20.15L29.45 67.18C29.56 67.95 30.19 68.51 30.94 68.51H83.45V73.51V73.5Z" fill="#fff" stroke="#131313" stroke-linejoin="round"></path><path d="M14.21 13.5H6.79C5.52527 13.5 4.5 14.5253 4.5 15.79V18.21C4.5 19.4747 5.52527 20.5 6.79 20.5H14.21C15.4747 20.5 16.5 19.4747 16.5 18.21V15.79C16.5 14.5253 15.4747 13.5 14.21 13.5Z" fill="#8C97FF" stroke="#131313" stroke-miterlimit="10"></path><path d="M4 91.5H92" stroke="#131313" stroke-miterlimit="10"></path></g><defs><clipPath id="a"><rect width="96" height="96" fill="#fff"></rect></clipPath></defs></svg>