<svg fill="none" xmlns="http://www.w3.org/2000/svg" viewBox="0 0 96 96" width="100%" height="100%" focusable="false" aria-hidden="true"><g clip-path="url(#a)"><path d="M86.5 41.5H9.5V91.5H86.5V41.5Z" fill="#fff" stroke="#131313" stroke-linejoin="round"></path><path d="M18.5 91.5V71C18.5 65.76 22.76 61.5 28 61.5C33.24 61.5 37.5 65.76 37.5 71V91.5H18.5Z" fill="#FEF2F0"></path><path d="M28 62C32.97 62 37 66.03 37 71V91H19V71C19 66.03 23.03 62 28 62ZM28 61C22.49 61 18 65.49 18 71V92H38V71C38 65.49 33.51 61 28 61Z" fill="#131313"></path><path d="M81.5 56.5H43.5V86.5H81.5V56.5Z" fill="#8C97FF"></path><path d="M81 57V86H44V57H81ZM82 56H43V87H82V56Z" fill="#131313"></path><path d="M53.07 66.5H49.93C48.5879 66.5 47.5 67.5879 47.5 68.93V77.07C47.5 78.4121 48.5879 79.5 49.93 79.5H53.07C54.4121 79.5 55.5 78.4121 55.5 77.07V68.93C55.5 67.5879 54.4121 66.5 53.07 66.5Z" fill="#FFAEE3"></path><path d="M53.07 67C54.13 67 55 67.86 55 68.93V77.08C55 78.14 54.14 79.01 53.07 79.01H49.92C48.86 79.01 47.99 78.15 47.99 77.08V68.93C47.99 67.87 48.85 67 49.92 67H53.07ZM53.07 66H49.92C48.31 66 46.99 67.31 46.99 68.93V77.08C46.99 78.69 48.3 80.01 49.92 80.01H53.07C54.68 80.01 56 78.7 56 77.08V68.93C56 67.32 54.69 66 53.07 66Z" fill="#131313"></path><path d="M65.56 63.5H61.44C59.8163 63.5 58.5 64.8163 58.5 66.44V76.56C58.5 78.1837 59.8163 79.5 61.44 79.5H65.56C67.1837 79.5 68.5 78.1837 68.5 76.56V66.44C68.5 64.8163 67.1837 63.5 65.56 63.5Z" fill="#fff"></path><path d="M65.56 64C66.91 64 68 65.09 68 66.44V76.55C68 77.9 66.91 78.99 65.56 78.99H61.45C60.1 78.99 59.01 77.9 59.01 76.55V66.44C59.01 65.09 60.1 64 61.45 64H65.56ZM65.56 63H61.45C59.55 63 58.01 64.54 58.01 66.44V76.55C58.01 78.45 59.55 79.99 61.45 79.99H65.56C67.46 79.99 69 78.45 69 76.55V66.44C69 64.54 67.46 63 65.56 63Z" fill="#131313"></path><path d="M75.76 71.5H73.24C72.279 71.5 71.5 72.279 71.5 73.24V77.76C71.5 78.721 72.279 79.5 73.24 79.5H75.76C76.721 79.5 77.5 78.721 77.5 77.76V73.24C77.5 72.279 76.721 71.5 75.76 71.5Z" fill="#00C300"></path><path d="M75.76 72C76.45 72 77 72.56 77 73.24V77.75C77 78.44 76.44 78.99 75.76 78.99H73.25C72.56 78.99 72.01 78.43 72.01 77.75V73.24C72.01 72.55 72.57 72 73.25 72H75.76ZM75.76 71H73.25C72.01 71 71.01 72.01 71.01 73.24V77.75C71.01 78.99 72.02 79.99 73.25 79.99H75.76C77 79.99 78 78.98 78 77.75V73.24C78 72 76.99 71 75.76 71Z" fill="#131313"></path><path d="M5.67001 43.5C5.51001 43.5 5.35001 43.42 5.26001 43.29C5.17001 43.16 5.14001 42.99 5.20001 42.83L13.2 20.83C13.27 20.63 13.46 20.5 13.67 20.5H81.67C81.88 20.5 82.07 20.63 82.14 20.83L90.14 42.83C90.2 42.98 90.17 43.15 90.08 43.29C89.99 43.42 89.83 43.5 89.67 43.5H5.67001Z" fill="#00C300"></path><path d="M81.67 21L89.67 43H5.66999L13.67 21H81.67ZM81.67 20H13.67C13.25 20 12.87 20.26 12.73 20.66L4.72999 42.66C4.61999 42.97 4.65999 43.31 4.84999 43.58C5.03999 43.85 5.33999 44.01 5.66999 44.01H89.67C90 44.01 90.3 43.85 90.49 43.58C90.68 43.31 90.72 42.97 90.61 42.66L82.61 20.66C82.47 20.26 82.09 20 81.67 20Z" fill="#131313"></path><path d="M81.27 52.4C76.36 52.4 72.37 48.18 72.37 43C72.37 42.72 72.59 42.5 72.87 42.5H89.67C89.95 42.5 90.17 42.72 90.17 43C90.17 48.18 86.18 52.4 81.27 52.4Z" fill="#00C300"></path><path d="M89.67 43C89.67 47.92 85.91 51.9 81.27 51.9C76.63 51.9 72.87 47.92 72.87 43H89.67ZM89.67 42H72.87C72.32 42 71.87 42.45 71.87 43C71.87 48.46 76.09 52.9 81.27 52.9C86.45 52.9 90.67 48.46 90.67 43C90.67 42.45 90.22 42 89.67 42Z" fill="#131313"></path><path d="M64.47 52.4C59.56 52.4 55.57 48.18 55.57 43C55.57 42.72 55.79 42.5 56.07 42.5H72.87C73.15 42.5 73.37 42.72 73.37 43C73.37 48.18 69.38 52.4 64.47 52.4Z" fill="#00C300"></path><path d="M72.87 43C72.87 47.92 69.11 51.9 64.47 51.9C59.83 51.9 56.07 47.92 56.07 43H72.87ZM72.87 42H56.07C55.52 42 55.07 42.45 55.07 43C55.07 48.46 59.29 52.9 64.47 52.9C69.65 52.9 73.87 48.46 73.87 43C73.87 42.45 73.42 42 72.87 42Z" fill="#131313"></path><path d="M47.67 52.4C42.76 52.4 38.77 48.18 38.77 43C38.77 42.72 38.99 42.5 39.27 42.5H56.07C56.35 42.5 56.57 42.72 56.57 43C56.57 48.18 52.58 52.4 47.67 52.4Z" fill="#00C300"></path><path d="M56.07 43C56.07 47.92 52.31 51.9 47.67 51.9C43.03 51.9 39.27 47.92 39.27 43H56.07ZM56.07 42H39.27C38.72 42 38.27 42.45 38.27 43C38.27 48.46 42.49 52.9 47.67 52.9C52.85 52.9 57.07 48.46 57.07 43C57.07 42.45 56.62 42 56.07 42Z" fill="#131313"></path><path d="M30.87 52.4C25.96 52.4 21.97 48.18 21.97 43C21.97 42.72 22.19 42.5 22.47 42.5H39.27C39.55 42.5 39.77 42.72 39.77 43C39.77 48.18 35.78 52.4 30.87 52.4Z" fill="#00C300"></path><path d="M39.27 43C39.27 47.92 35.51 51.9 30.87 51.9C26.23 51.9 22.47 47.92 22.47 43H39.27ZM39.27 42H22.47C21.92 42 21.47 42.45 21.47 43C21.47 48.46 25.69 52.9 30.87 52.9C36.05 52.9 40.27 48.46 40.27 43C40.27 42.45 39.82 42 39.27 42Z" fill="#131313"></path><path d="M14.07 52.4C9.16001 52.4 5.17001 48.18 5.17001 43C5.17001 42.72 5.39001 42.5 5.67001 42.5H22.47C22.75 42.5 22.97 42.72 22.97 43C22.97 48.18 18.98 52.4 14.07 52.4Z" fill="#00C300"></path><path d="M22.47 43C22.47 47.92 18.71 51.9 14.07 51.9C9.43001 51.9 5.67001 47.92 5.67001 43H22.47ZM22.47 42H5.67001C5.12001 42 4.67001 42.45 4.67001 43C4.67001 48.46 8.89001 52.9 14.07 52.9C19.25 52.9 23.47 48.46 23.47 43C23.47 42.45 23.02 42 22.47 42Z" fill="#131313"></path><path d="M44 79.5H81" stroke="#131313" stroke-miterlimit="10"></path><path d="M4 91.5H92" stroke="#131313" stroke-miterlimit="10"></path></g><defs><clipPath id="a"><rect width="96" height="96" fill="#fff"></rect></clipPath></defs></svg>